<svg width="279" height="258" viewBox="0 0 279 258" fill="none" xmlns="http://www.w3.org/2000/svg">
<path d="M33 177.02C33 197.52 113 197.52 151 247.02V60.0195C147 51.5195 80.5 18.0195 41 10.0205C35 9.62045 33.1667 15.1871 33 18.0205V177.02Z" fill="#2563FF" stroke="#2563FF"/>
<path d="M269 177.02C269 197.52 189 197.52 151 247.02V60.0195C155 51.5195 221.5 18.0195 261 10.0205C267 9.62045 268.833 15.1871 269 18.0205V177.02Z" fill="#2563FF" stroke="#2563FF"/>
<path d="M10.0391 201.242C8.03913 213.642 83.2058 230.742 121.039 237.742C121.039 225.242 20.5391 204.242 22.0391 187.742V43.7424C17.2391 33.3424 12.0391 39.409 10.0391 43.7424V201.242Z" fill="#2563FF" stroke="#2563FF"/>
<path d="M205.5 120.938C210.167 123.632 210.167 130.368 205.5 133.062L132 175.497C127.333 178.192 121.5 174.824 121.5 169.435L121.5 84.5648C121.5 79.1762 127.333 75.8083 132 78.5026L205.5 120.938Z" fill="white"/>
</svg>
