<svg width="1198" height="346" viewBox="0 0 1198 346" fill="none" xmlns="http://www.w3.org/2000/svg">
<path d="M73 221.511C73 242.011 153 242.011 191 291.511V104.51C187 96.0098 120.5 62.5098 81 54.5107C75 54.1107 73.1667 59.6774 73 62.5107V221.511Z" fill="#2563FF" stroke="#2563FF"/>
<path d="M309 221.511C309 242.011 229 242.011 191 291.511V104.51C195 96.0098 261.5 62.5098 301 54.5107C307 54.1107 308.833 59.6774 309 62.5107V221.511Z" fill="#2563FF" stroke="#2563FF"/>
<path d="M50.0391 245.733C48.0391 258.133 123.206 275.233 161.039 282.233C161.039 269.732 60.5391 248.732 62.0391 232.232V88.2326C57.2391 77.8326 52.0391 83.8993 50.0391 88.2326V245.733Z" fill="#2563FF" stroke="#2563FF"/>
<path d="M245.5 165.428C250.167 168.122 250.167 174.858 245.5 177.552L172 219.988C167.333 222.682 161.5 219.314 161.5 213.925L161.5 129.055C161.5 123.666 167.333 120.299 172 122.993L245.5 165.428Z" fill="white"/>
<path d="M496.511 115.332L457.741 190.08V230H434.742V190.08L395.807 115.332H421.764L446.406 167.737L470.884 115.332H496.511ZM566.453 115.332V133.896H535.897V230H512.897V133.896H482.341V115.332H566.453ZM645.378 211.765H683.163V230H622.379V115.332H645.378V211.765ZM779.101 182.523C779.101 185.808 778.881 188.765 778.443 191.394H711.91C712.457 197.965 714.757 203.113 718.809 206.836C722.862 210.56 727.845 212.422 733.759 212.422C742.302 212.422 748.38 208.753 751.994 201.415H776.801C774.172 210.177 769.134 217.405 761.687 223.1C754.239 228.686 745.094 231.479 734.252 231.479C725.49 231.479 717.605 229.562 710.595 225.729C703.696 221.786 698.274 216.255 694.331 209.136C690.498 202.017 688.582 193.803 688.582 184.494C688.582 175.075 690.498 166.807 694.331 159.688C698.165 152.569 703.531 147.093 710.431 143.26C717.331 139.426 725.271 137.51 734.252 137.51C742.904 137.51 750.625 139.372 757.415 143.095C764.315 146.819 769.627 152.131 773.351 159.031C777.184 165.821 779.101 173.652 779.101 182.523ZM755.28 175.952C755.17 170.037 753.035 165.328 748.873 161.823C744.711 158.209 739.618 156.402 733.595 156.402C727.9 156.402 723.081 158.154 719.138 161.659C715.305 165.054 712.95 169.818 712.074 175.952H755.28ZM786.688 184.166C786.688 174.966 788.495 166.807 792.11 159.688C795.833 152.569 800.816 147.093 807.059 143.26C813.411 139.426 820.475 137.51 828.251 137.51C835.042 137.51 840.956 138.879 845.994 141.617C851.141 144.355 855.248 147.805 858.315 151.966V138.988H881.478V230H858.315V216.693C855.358 220.965 851.251 224.524 845.994 227.372C840.846 230.11 834.877 231.479 828.087 231.479C820.421 231.479 813.411 229.507 807.059 225.564C800.816 221.622 795.833 216.091 792.11 208.972C788.495 201.744 786.688 193.475 786.688 184.166ZM858.315 184.494C858.315 178.909 857.22 174.144 855.029 170.202C852.839 166.149 849.882 163.083 846.158 161.002C842.434 158.812 838.437 157.716 834.165 157.716C829.894 157.716 825.951 158.757 822.337 160.838C818.723 162.919 815.766 165.985 813.466 170.037C811.276 173.98 810.18 178.69 810.18 184.166C810.18 189.642 811.276 194.461 813.466 198.622C815.766 202.675 818.723 205.796 822.337 207.986C826.061 210.177 830.004 211.272 834.165 211.272C838.437 211.272 842.434 210.232 846.158 208.151C849.882 205.96 852.839 202.894 855.029 198.951C857.22 194.899 858.315 190.08 858.315 184.494ZM923.655 153.116C926.612 148.298 930.445 144.519 935.155 141.781C939.974 139.043 945.45 137.674 951.583 137.674V161.823H945.504C938.276 161.823 932.8 163.521 929.076 166.916C925.462 170.311 923.655 176.225 923.655 184.658V230H900.656V138.988H923.655V153.116ZM1014.22 137.674C1025.07 137.674 1033.83 141.124 1040.51 148.024C1047.19 154.814 1050.53 164.342 1050.53 176.609V230H1027.53V179.73C1027.53 172.502 1025.72 166.971 1022.11 163.138C1018.49 159.195 1013.57 157.223 1007.32 157.223C1000.97 157.223 995.933 159.195 992.209 163.138C988.595 166.971 986.788 172.502 986.788 179.73V230H963.788V138.988H986.788V150.324C989.854 146.381 993.742 143.314 998.452 141.124C1003.27 138.824 1008.53 137.674 1014.22 137.674ZM1103.94 231.479C1096.49 231.479 1089.81 230.164 1083.9 227.536C1077.99 224.798 1073.28 221.129 1069.77 216.529C1066.38 211.929 1064.51 206.836 1064.19 201.251H1087.35C1087.79 204.755 1089.49 207.658 1092.44 209.958C1095.51 212.258 1099.29 213.408 1103.78 213.408C1108.16 213.408 1111.55 212.531 1113.96 210.779C1116.48 209.027 1117.74 206.782 1117.74 204.044C1117.74 201.087 1116.21 198.896 1113.14 197.472C1110.18 195.939 1105.42 194.296 1098.85 192.544C1092.06 190.901 1086.47 189.204 1082.09 187.451C1077.82 185.699 1074.1 183.016 1070.92 179.401C1067.85 175.787 1066.32 170.914 1066.32 164.78C1066.32 159.742 1067.75 155.143 1070.59 150.981C1073.55 146.819 1077.71 143.533 1083.08 141.124C1088.55 138.714 1094.96 137.51 1102.3 137.51C1113.14 137.51 1121.79 140.248 1128.26 145.724C1134.72 151.09 1138.28 158.373 1138.93 167.573H1116.92C1116.59 163.959 1115.06 161.111 1112.32 159.031C1109.69 156.84 1106.13 155.745 1101.64 155.745C1097.48 155.745 1094.25 156.512 1091.95 158.045C1089.76 159.578 1088.66 161.714 1088.66 164.452C1088.66 167.518 1090.2 169.873 1093.26 171.516C1096.33 173.049 1101.09 174.637 1107.56 176.28C1114.13 177.923 1119.55 179.62 1123.82 181.373C1128.09 183.125 1131.76 185.863 1134.83 189.587C1138 193.201 1139.65 198.02 1139.76 204.044C1139.76 209.301 1138.28 214.01 1135.32 218.172C1132.47 222.334 1128.31 225.619 1122.83 228.029C1117.47 230.329 1111.17 231.479 1103.94 231.479Z" fill="white"/>
</svg>
